<svg width="25" height="24" viewBox="0 0 25 24" fill="none" xmlns="http://www.w3.org/2000/svg">
    <path fill-rule="evenodd" clip-rule="evenodd"
        d="M5.70173 4.85714C4.91691 4.85714 4.28068 5.49673 4.28068 6.28571V19.619C4.28068 20.408 4.91691 21.0476 5.70173 21.0476H18.9649C19.7497 21.0476 20.3859 20.408 20.3859 19.619V6.28571C20.3859 5.49673 19.7497 4.85714 18.9649 4.85714H5.70173ZM3.33331 6.28571C3.33331 4.97074 4.39369 3.90476 5.70173 3.90476H18.9649C20.2729 3.90476 21.3333 4.97074 21.3333 6.28571V19.619C21.3333 20.934 20.2729 22 18.9649 22H5.70173C4.39369 22 3.33331 20.934 3.33331 19.619V6.28571Z"
        fill="#525D7A" />
    <path fill-rule="evenodd" clip-rule="evenodd"
        d="M16.1227 2C16.3844 2 16.5964 2.2132 16.5964 2.47619V6.28572C16.5964 6.54871 16.3844 6.76191 16.1227 6.76191C15.8611 6.76191 15.6491 6.54871 15.6491 6.28572V2.47619C15.6491 2.2132 15.8611 2 16.1227 2Z"
        fill="#525D7A" />
    <path fill-rule="evenodd" clip-rule="evenodd"
        d="M8.54383 2C8.80544 2 9.01751 2.2132 9.01751 2.47619V6.28572C9.01751 6.54871 8.80544 6.76191 8.54383 6.76191C8.28222 6.76191 8.07014 6.54871 8.07014 6.28572V2.47619C8.07014 2.2132 8.28222 2 8.54383 2Z"
        fill="#525D7A" />
    <path fill-rule="evenodd" clip-rule="evenodd"
        d="M3.33331 10.0953C3.33331 9.83226 3.54539 9.61906 3.807 9.61906H20.8596C21.1212 9.61906 21.3333 9.83226 21.3333 10.0953C21.3333 10.3582 21.1212 10.5714 20.8596 10.5714H3.807C3.54539 10.5714 3.33331 10.3582 3.33331 10.0953Z"
        fill="#525D7A" />
</svg>