<svg width="25" height="24" viewBox="0 0 25 24" fill="none" xmlns="http://www.w3.org/2000/svg">
    <path fill-rule="evenodd" clip-rule="evenodd"
        d="M3.86069 15.6253C4.62841 14.8235 5.67477 14.3684 6.77102 14.3684H14.0274C15.1236 14.3684 16.17 14.8235 16.9377 15.6253C17.7047 16.4264 18.1317 17.5082 18.1317 18.6316V20.5263C18.1317 20.7879 17.9185 21 17.6555 21C17.3925 21 17.1793 20.7879 17.1793 20.5263V18.6316C17.1793 17.7449 16.8419 16.8989 16.248 16.2787C15.6549 15.6592 14.8556 15.3158 14.0274 15.3158H6.77102C5.94277 15.3158 5.14345 15.6592 4.55035 16.2787C3.9565 16.8989 3.61905 17.7449 3.61905 18.6316V20.5263C3.61905 20.7879 3.40585 21 3.14285 21C2.87986 21 2.66666 20.7879 2.66666 20.5263V18.6316C2.66666 17.5082 3.09371 16.4264 3.86069 15.6253Z"
        fill="#525D7A" />
    <path fill-rule="evenodd" clip-rule="evenodd"
        d="M10.3992 3.94737C8.68003 3.94737 7.24722 5.40986 7.24722 7.26317C7.24722 9.11649 8.68003 10.579 10.3992 10.579C12.1183 10.579 13.5512 9.11649 13.5512 7.26317C13.5512 5.40986 12.1183 3.94737 10.3992 3.94737ZM6.29482 7.26317C6.29482 4.93073 8.11078 3 10.3992 3C12.6876 3 14.5035 4.93073 14.5035 7.26317C14.5035 9.59562 12.6876 11.5263 10.3992 11.5263C8.11078 11.5263 6.29482 9.59562 6.29482 7.26317Z"
        fill="#525D7A" />
    <path fill-rule="evenodd" clip-rule="evenodd"
        d="M19.0097 14.8412C19.0785 14.5887 19.3401 14.4395 19.5939 14.5079C20.4791 14.7466 21.2585 15.2843 21.8129 16.0312C22.367 16.7777 22.666 17.6923 22.6667 18.6311V20.5262C22.6667 20.7878 22.4535 20.9999 22.1905 20.9999C21.9275 20.9999 21.7143 20.7878 21.7143 20.5262V18.6318C21.7137 17.8913 21.4776 17.1746 21.0467 16.5939C20.616 16.0136 20.0163 15.6034 19.3447 15.4223C19.0909 15.3538 18.9409 15.0937 19.0097 14.8412Z"
        fill="#525D7A" />
    <path fill-rule="evenodd" clip-rule="evenodd"
        d="M15.3813 3.47373C15.4495 3.22109 15.7108 3.07135 15.9648 3.13927C16.8522 3.3766 17.6342 3.91445 18.1902 4.66258C18.7459 5.41034 19.0456 6.32693 19.0456 7.26778C19.0456 8.20862 18.7459 9.12521 18.1902 9.87297C17.6342 10.6211 16.8522 11.1589 15.9648 11.3963C15.7108 11.4642 15.4495 11.3145 15.3813 11.0618C15.313 10.8092 15.4635 10.5493 15.7175 10.4814C16.3909 10.3013 16.9924 9.89104 17.4243 9.3098C17.8566 8.72819 18.0932 8.00979 18.0932 7.26778C18.0932 6.52576 17.8566 5.80736 17.4243 5.22575C16.9924 4.64451 16.3909 4.23423 15.7175 4.05415C15.4635 3.98623 15.313 3.72637 15.3813 3.47373Z"
        fill="#525D7A" />
</svg>