<svg width="24" height="24" viewBox="0 0 24 24" fill="none" xmlns="http://www.w3.org/2000/svg">
    <path fill-rule="evenodd" clip-rule="evenodd"
        d="M14.0708 2.00002C14.2675 2.00189 14.4444 2.11979 14.5219 2.30054L21.9599 19.6559C22.0256 19.8091 22.0099 19.9851 21.9181 20.1242C21.8263 20.2634 21.6708 20.3471 21.5041 20.3471H18.1322C17.8584 20.3471 17.6364 20.1251 17.6364 19.8512C17.6364 19.5774 17.8584 19.3554 18.1322 19.3554H20.7521L15.6878 7.53871L14.4809 9.37936C14.3917 9.51538 14.2414 9.59901 14.0788 9.60315C13.9162 9.60729 13.7619 9.53142 13.6659 9.40011L12.2697 7.49054C12.133 7.57899 11.9555 7.59833 11.796 7.52636C11.5464 7.41371 11.4354 7.12004 11.548 6.87042L13.6141 2.29191C13.695 2.11266 13.8742 1.99815 14.0708 2.00002ZM12.7921 6.52468L14.044 8.23698L15.2191 6.44498L14.0544 3.72736L12.7921 6.52468ZM9.93388 5.30578C10.1255 5.30578 10.3 5.4162 10.382 5.58938L17.82 21.2919C17.8928 21.4455 17.8818 21.6257 17.7909 21.7693C17.7 21.9129 17.5419 22 17.3719 22H2.49587C2.32589 22 2.16775 21.9129 2.07686 21.7693C1.98596 21.6257 1.97497 21.4455 2.04773 21.2919L9.48575 5.58938C9.56778 5.4162 9.74226 5.30578 9.93388 5.30578ZM3.27944 21.0083H16.5883L11.9121 11.1363L10.2845 12.7639C10.0909 12.9575 9.7769 12.9575 9.58325 12.7639L7.95565 11.1363L3.27944 21.0083ZM8.40646 10.1845L9.93388 11.712L11.4613 10.1845L9.93388 6.95999L8.40646 10.1845Z"
        fill="#525D7A" />
</svg>