<svg width="19" height="18" viewBox="0 0 19 18" fill="none" xmlns="http://www.w3.org/2000/svg">
    <path fill-rule="evenodd" clip-rule="evenodd"
        d="M7.95041 2.2438C5.07488 2.2438 2.7438 4.57488 2.7438 7.45041C2.7438 10.3259 5.07488 12.657 7.95041 12.657C10.8259 12.657 13.157 10.3259 13.157 7.45041C13.157 4.57488 10.8259 2.2438 7.95041 2.2438ZM2 7.45041C2 4.16409 4.66409 1.5 7.95041 1.5C11.2367 1.5 13.9008 4.16409 13.9008 7.45041C13.9008 8.95974 13.3389 10.3378 12.4128 11.3868L16.8911 15.8651C17.0363 16.0104 17.0363 16.2458 16.8911 16.3911C16.7458 16.5363 16.5104 16.5363 16.3651 16.3911L11.8868 11.9128C10.8378 12.8389 9.45974 13.4008 7.95041 13.4008C4.66409 13.4008 2 10.7367 2 7.45041Z"
        fill="#1F5CF1" stroke="#1F5CF1" stroke-width="0.7" stroke-miterlimit="10" stroke-linecap="round"
        stroke-linejoin="round" />
</svg>