<svg viewBox="0 0 33 32" fill="none" xmlns="http://www.w3.org/2000/svg" color="#525D7A">
    <path fill-rule="evenodd" clip-rule="evenodd"
        d="M9.512 28c-.3 0-.5-.1-.8-.3-1.798-2.1-2.898-5.1-2.898-8.4 0-3.3 1.1-6.4 2.899-8.4.2-.3.5-.4.8-.4h5.995v-3L5.615 8.6h-.1c-.5 0-1-.4-1-.9-.1-.6.3-1.1.9-1.1L27.4 4h.1c.5 0 .999.4.999.9 0 .3 0 .5-.2.8-.2.3-.4.3-.7.4L17.508 7.2v3.2h6.096c.3 0 .6.1.8.3 1.799 2.1 2.798 5.1 2.698 8.4 0 3.3-1.1 5.9-2.998 8.4-.081.107-.3.5-.6.5H9.513zm13.392-2.1c1.199-1.4 1.898-3.4 2.098-5.7H8.013c.2 2.2.9 4.3 1.999 5.7h12.892zm2.198-7.7c-.1-2.2-.8-4.3-1.899-5.7h-5.696v5.7h7.595zm-9.594 0v-5.7h-5.496c-1.1 1.4-1.899 3.5-1.999 5.7h7.495z"
        fill="#000"></path>
</svg>