<svg width="24" height="24" viewBox="0 0 24 24" fill="none" xmlns="http://www.w3.org/2000/svg">
    <path fill-rule="evenodd" clip-rule="evenodd"
        d="M11.9303 2.95238C9.0428 2.95238 6.69387 5.26867 6.69387 8.14131C6.69387 10.855 8.05623 13.4111 9.46369 15.3196C10.1631 16.2679 10.8632 17.0424 11.3882 17.5793C11.6025 17.7986 11.7873 17.9778 11.9303 18.1126C12.0733 17.9778 12.258 17.7986 12.4724 17.5793C12.9974 17.0424 13.6975 16.2679 14.3968 15.3196C15.8043 13.4111 17.1667 10.855 17.1667 8.14131C17.1667 5.26867 14.8177 2.95238 11.9303 2.95238ZM11.9303 18.7634C11.6093 19.1216 11.609 19.1214 11.609 19.1214L11.6074 19.12L11.6034 19.1166L11.5895 19.1045C11.5775 19.094 11.5602 19.0789 11.5381 19.0592C11.4938 19.0198 11.4298 18.9621 11.349 18.8871C11.1873 18.7372 10.9581 18.5179 10.6838 18.2373C10.1356 17.6767 9.40479 16.8684 8.67327 15.8765C7.21894 13.9044 5.71951 11.1494 5.71951 8.14131C5.71951 4.75399 8.49318 2 11.9303 2C15.3673 2 18.141 4.75399 18.141 8.14131C18.141 11.1494 16.6416 13.9044 15.1873 15.8765C14.4557 16.8684 13.725 17.6767 13.1768 18.2373C12.9024 18.5179 12.6732 18.7372 12.5116 18.8871C12.4307 18.9621 12.3667 19.0198 12.3224 19.0592C12.3003 19.0789 12.283 19.094 12.2711 19.1045L12.2571 19.1166L12.2531 19.12L12.2519 19.121C12.2519 19.121 12.2513 19.1216 11.9303 18.7634ZM11.9303 18.7634L12.2519 19.121C12.0682 19.2784 11.7927 19.2787 11.609 19.1214L11.9303 18.7634ZM11.9303 5.77078C10.6166 5.77078 9.54135 6.82645 9.54135 8.14131C9.54135 9.45617 10.6166 10.5118 11.9303 10.5118C13.2439 10.5118 14.3192 9.45617 14.3192 8.14131C14.3192 6.82645 13.2439 5.77078 11.9303 5.77078ZM8.56699 8.14131C8.56699 6.31177 10.067 4.8184 11.9303 4.8184C13.7935 4.8184 15.2935 6.31177 15.2935 8.14131C15.2935 9.97086 13.7935 11.4642 11.9303 11.4642C10.067 11.4642 8.56699 9.97086 8.56699 8.14131ZM8.99467 18.4364C9.00821 18.6991 8.80134 18.9228 8.53262 18.936C6.69947 19.0262 5.36287 19.22 4.49818 19.468C4.06288 19.5928 3.77871 19.7228 3.61378 19.8384C3.55675 19.8784 3.52234 19.9102 3.50178 19.9333C3.56635 19.9859 3.68251 20.0558 3.86876 20.1342C4.26282 20.3001 4.86311 20.4604 5.64212 20.5989C7.19214 20.8746 9.35386 21.0476 11.7564 21.0476C14.1587 21.0476 16.4448 20.8746 18.1203 20.5979C18.9619 20.4589 19.6269 20.2973 20.0706 20.128C20.2682 20.0526 20.4 19.9837 20.4798 19.9283C20.4563 19.9067 20.4221 19.8794 20.3725 19.8468C20.1899 19.727 19.8818 19.5952 19.4236 19.4695C18.5139 19.22 17.1327 19.0262 15.2999 18.936C15.0312 18.9228 14.8243 18.6991 14.8379 18.4364C14.8514 18.1738 15.0802 17.9716 15.3489 17.9848C17.2138 18.0766 18.6768 18.2755 19.6869 18.5526C20.1886 18.6902 20.6093 18.8552 20.9155 19.056C21.2104 19.2495 21.5 19.5468 21.5 19.9635C21.5 20.2841 21.2955 20.5117 21.1181 20.6503C20.9328 20.7951 20.6899 20.914 20.425 21.0151C19.8902 21.2192 19.1496 21.3938 18.2827 21.537C16.5412 21.8246 14.1991 22 11.7564 22C9.31396 22 7.09106 21.8246 5.46772 21.5359C4.66004 21.3923 3.97647 21.2165 3.48333 21.0089C3.23862 20.9059 3.01315 20.7837 2.84118 20.634C2.67104 20.4858 2.5 20.2616 2.5 19.9635C2.5 19.5642 2.75717 19.2669 3.04589 19.0645C3.33837 18.8594 3.74112 18.6926 4.22384 18.5541C5.19519 18.2755 6.61906 18.0766 8.4836 17.9848C8.75233 17.9716 8.98114 18.1738 8.99467 18.4364Z"
        fill="#525D7A" />
</svg>